<?xml version="1.0" standalone="no"?>
<!DOCTYPE svg PUBLIC "-//W3C//DTD SVG 20010904//EN"
 "http://www.w3.org/TR/2001/REC-SVG-20010904/DTD/svg10.dtd">
<svg version="1.0" xmlns="http://www.w3.org/2000/svg"
 width="450.000000pt" height="450.000000pt" viewBox="0 0 450.000000 450.000000"
 preserveAspectRatio="xMidYMid meet">
<metadata>
Created by potrace 1.11, written by Peter Selinger 2001-2013
</metadata>
<g transform="translate(0.000000,450.000000) scale(0.100000,-0.100000)"
fill="#000000" stroke="none">
<path d="M3309 4202 c-192 -64 -299 -257 -255 -462 10 -45 56 -126 94 -167
154 -162 411 -160 562 3 175 189 116 491 -117 606 -83 41 -196 49 -284 20z"/>
<path d="M2488 3935 c-2 -1 -41 -5 -88 -8 -145 -10 -287 -43 -445 -104 -144
-55 -141 -37 -37 -216 50 -85 99 -169 110 -188 126 -224 123 -219 151 -213 14
4 33 10 41 15 22 11 137 39 189 47 74 11 261 6 321 -7 250 -57 451 -183 588
-369 87 -118 129 -206 167 -352 l22 -85 323 -3 c178 -1 327 1 331 5 8 9 -11
133 -39 254 -47 196 -187 479 -302 609 -12 14 -29 35 -38 47 l-17 23 -45 -30
c-25 -17 -81 -42 -125 -56 -198 -64 -410 -11 -561 140 -109 110 -164 238 -164
387 0 53 -4 76 -12 76 -7 1 -47 6 -88 12 -70 10 -275 22 -282 16z"/>
<path d="M1576 3614 c-117 -86 -261 -233 -350 -357 -76 -105 -183 -315 -221
-432 l-26 -79 33 -25 c94 -72 154 -153 194 -258 49 -131 50 -245 3 -386 -11
-34 -27 -69 -35 -78 -8 -8 -14 -19 -14 -24 0 -14 -84 -111 -117 -136 -18 -13
-34 -29 -37 -35 -6 -16 80 -213 138 -314 62 -107 159 -233 256 -331 75 -76
175 -159 190 -159 5 0 36 48 70 107 35 60 71 123 81 141 11 17 27 47 38 65 10
17 48 82 83 143 l65 110 -72 75 c-173 181 -262 391 -270 639 -9 277 90 525
285 718 l58 58 -60 105 c-70 121 -69 119 -178 309 -46 80 -86 148 -89 152 -3
4 -15 0 -25 -8z"/>
<path d="M631 2648 c-129 -19 -244 -106 -298 -225 -36 -77 -41 -196 -13 -277
78 -228 332 -327 551 -215 57 29 130 108 162 176 39 84 45 191 16 277 -48 140
-150 231 -289 259 -54 10 -84 11 -129 5z"/>
<path d="M3502 2158 c-4 -50 -53 -201 -87 -270 -118 -235 -309 -403 -555 -490
-30 -11 -64 -21 -75 -24 -11 -2 -43 -9 -72 -14 -132 -28 -336 -12 -470 35 -39
14 -76 25 -81 25 -11 0 -28 -28 -212 -344 -66 -115 -119 -214 -117 -221 3 -6
52 -30 110 -53 253 -99 496 -133 772 -108 75 6 153 20 159 28 2 1 9 31 15 66
16 83 42 142 95 216 51 71 82 100 159 149 150 96 352 109 529 33 l37 -16 56
63 c80 88 187 251 246 374 28 58 52 113 54 122 2 9 15 49 29 89 14 41 28 83
30 95 16 74 36 188 39 225 l4 42 -76 1 c-42 0 -191 1 -332 2 l-255 2 -2 -27z"/>
<path d="M3349 1051 c-205 -52 -330 -246 -289 -447 49 -237 288 -368 514 -284
158 59 254 212 244 385 -15 235 -243 403 -469 346z"/>
</g>
</svg>
